<svg xmlns="http://www.w3.org/2000/svg" xmlns:xlink="http://www.w3.org/1999/xlink" width="109.455" height="90.243" viewBox="0 0 109.455 90.243"><defs><style>.a{opacity:0.051;}.b{fill:url(#a);}.c{fill:url(#b);}.d{fill:url(#c);}</style><linearGradient id="a" x1="0.5" y1="1" x2="0.5" y2="0.119" gradientUnits="objectBoundingBox"><stop offset="0" stop-color="#330d69"/><stop offset="0.34" stop-color="#324587"/><stop offset="0.642" stop-color="#316c9b"/><stop offset="1" stop-color="#30adbe"/></linearGradient><linearGradient id="b" x1="0.5" y1="0.964" x2="0.5" y2="0.059" gradientUnits="objectBoundingBox"><stop offset="0" stop-color="#330d69"/><stop offset="0.358" stop-color="#324587"/><stop offset="0.655" stop-color="#316c9b"/><stop offset="1" stop-color="#30adbe"/></linearGradient><linearGradient id="c" x1="0.5" y1="1" x2="0.5" y2="0.076" gradientUnits="objectBoundingBox"><stop offset="0" stop-color="#330d69"/><stop offset="0.417" stop-color="#324587"/><stop offset="0.657" stop-color="#316c9b"/><stop offset="1" stop-color="#30adbe"/></linearGradient></defs><g class="a" transform="matrix(0.899, 0.438, -0.438, 0.899, 29.628, -32.844)"><path class="b" d="M92.779,54.868,70.707,31.484a3.544,3.544,0,1,0-5.13,4.892l19.686,21L65.457,78.253a3.564,3.564,0,0,0,.119,5.011,3.85,3.85,0,0,0,2.505.954,3.7,3.7,0,0,0,2.625-1.074L92.779,59.76A3.53,3.53,0,0,0,92.779,54.868Z" transform="translate(10.718 1.771)"/><path class="c" d="M37.162,31.357a3.564,3.564,0,0,0-5.011.119L9.959,54.861a3.53,3.53,0,0,0,0,4.892L32.031,83.137a3.7,3.7,0,0,0,2.625,1.074,4.1,4.1,0,0,0,2.505-.954,3.46,3.46,0,0,0,.119-5.011L17.476,57.366,37.281,36.487A3.714,3.714,0,0,0,37.162,31.357Z" transform="translate(0 1.778)"/><path class="d" d="M56.26,21.2A3.617,3.617,0,0,0,52.2,24.187L41.7,92.909a3.617,3.617,0,0,0,2.983,4.056h.6a3.7,3.7,0,0,0,3.579-2.983l10.5-68.722A3.883,3.883,0,0,0,56.26,21.2Z" transform="translate(6.314 0)"/></g></svg>