<svg xmlns="http://www.w3.org/2000/svg" width="881.488" height="645.184" viewBox="0 0 881.488 645.184"><defs><style>.a{fill:rgba(239,239,239,0.4);}</style></defs><g transform="translate(205.418 -1418.214)"><path class="a" d="M298.312,233,115.89,39.731a28.6,28.6,0,0,0-41.415-.986,28.6,28.6,0,0,0-.986,41.415l162.7,173.548L72.5,426.269c-10.847,11.833-10.847,30.568.986,41.415A31.823,31.823,0,0,0,94.2,475.573,30.59,30.59,0,0,0,115.89,466.7L298.312,273.429C309.159,262.582,309.159,244.833,298.312,233Z" transform="translate(389.859 1521.78) rotate(16)"/><path class="a" d="M241.933,38.4c-11.833-10.847-30.568-10.847-41.415.986L17.11,232.658c-10.847,11.833-10.847,29.582,0,40.429L199.532,466.355a30.59,30.59,0,0,0,21.693,8.875c6.9,0,14.791-2.958,20.707-7.888a28.6,28.6,0,0,0,.986-41.415L79.232,253.365,242.919,80.8A30.7,30.7,0,0,0,241.933,38.4Z" transform="translate(-83.055 1386.531) rotate(16)"/><path class="a" d="M162.208,21.408c-15.777-1.972-31.554,8.875-33.526,24.652L41.908,614.033c-1.972,15.777,8.875,31.554,24.652,33.526h4.93c14.791,0,26.624-10.847,29.582-24.652L187.846,54.934C188.832,39.157,177.985,24.366,162.208,21.408Z" transform="translate(217.973 1387.948) rotate(16)"/></g></svg>